<?xml version="1.0" encoding="utf-8"?>
<!-- Generator: Adobe Illustrator 21.0.0, SVG Export Plug-In . SVG Version: 6.00 Build 0)  -->
<svg version="1.1" id="Layer_1" xmlns="http://www.w3.org/2000/svg" xmlns:xlink="http://www.w3.org/1999/xlink" x="0px" y="0px"
	 width="35px" height="26.1px" viewBox="0 0 35 26.1" style="enable-background:new 0 0 35 26.1;" xml:space="preserve">
<style type="text/css">
	.st0{fill:#009048;}
</style>
<g>
	<path class="st0" d="M18.1,20.7c-0.2-0.1-0.3-0.1-0.5-0.1h-1.8v-2.1h3.7c0.8-0.7,1.8-1.1,2.8-1.4c-0.3-0.4-0.5-0.8-0.7-1.2H2.7V2.7
		h21.7V6c0.8-0.3,1.7-0.5,2.7-0.5V2.3c0-1.3-1-2.3-2.3-2.3H2.3C1,0,0,1,0,2.3v13.9c0,1.3,1,2.3,2.3,2.3h9v2.1H9.5
		c-0.9,0-1.6,0.7-1.6,1.6c0,0.9,0.7,1.6,1.6,1.6h8.1c0,0,0.1,0,0.1,0C17.7,22.5,17.8,21.6,18.1,20.7L18.1,20.7z M18.1,20.7"/>
	<path class="st0" d="M35,25c0-2.3-0.1-3.8-0.8-4.9c-0.8-1.3-2.4-1.8-4.6-2.2l0,0c0,0-0.2,0-0.6-0.1c-0.1,0-0.2-0.3,0-0.4
		c1.7-0.9,2.8-2.9,2.8-5.1c0-1.8-0.3-3-0.8-3.9c-0.7-1.1-2.3-1.6-3.8-1.6c-1.5,0-3.1,0.6-3.8,1.6c-0.6,0.9-0.8,2.1-0.8,3.9
		c0,2.2,1.1,4.2,2.8,5.1c0.2,0.1,0.1,0.4,0,0.4c-0.4,0-0.6,0.1-0.6,0.1l0,0c-2.2,0.4-3.8,0.9-4.6,2.2c-0.7,1.1-0.7,2.6-0.8,4.9
		l0,0.3c0,0.2,0.1,0.4,0.2,0.5c0.1,0.1,0.3,0.2,0.5,0.2h14.3c0.2,0,0.4-0.1,0.5-0.2c0.1-0.1,0.2-0.3,0.2-0.5L35,25z M35,25"/>
	<path d="M17,6.8c0.1-0.1,0.3-0.1,0.5,0l0.4,0.4l0.2-0.2c0.2-0.2,0.2-0.6,0-0.8l-1.3-1.3c-0.2-0.2-0.6-0.2-0.8,0l-0.5,0.5l-1.3,1.3
		l-2.2,2.2l-0.3-0.3C11,8,10.2,8,9.7,8.6L8.2,10c-0.5,0.5-0.5,1.4,0,1.9l1.7,1.7c0.5,0.5,1.4,0.5,1.9,0l1.4-1.4
		c0.5-0.5,0.5-1.4,0-1.9l-0.3-0.3l1.8-1.8l0.6,0.6C15.7,9,16,9,16.2,8.7l0.3-0.3l-0.7-0.7c-0.1-0.1-0.1-0.3,0-0.5
		c0.1-0.1,0.3-0.1,0.5,0L17,8l0.4-0.4L17,7.2C16.9,7.1,16.9,6.9,17,6.8L17,6.8z M11.2,12.3L11,12.5c-0.1,0.1-0.3,0.1-0.5,0l-1.2-1.2
		c-0.1-0.1-0.1-0.3,0-0.5l0.2-0.2c0.1-0.1,0.3-0.1,0.5,0l1.2,1.2C11.3,11.9,11.3,12.1,11.2,12.3L11.2,12.3z M11.2,12.3"/>
</g>
</svg>
