<?xml version="1.0" encoding="utf-8"?>
<!-- Generator: Adobe Illustrator 21.0.0, SVG Export Plug-In . SVG Version: 6.00 Build 0)  -->
<svg version="1.1" id="Capa_1" xmlns="http://www.w3.org/2000/svg" xmlns:xlink="http://www.w3.org/1999/xlink" x="0px" y="0px"
	 width="65px" height="65px" viewBox="0 0 65 65" style="enable-background:new 0 0 65 65;" xml:space="preserve">
<style type="text/css">
	.st0{fill:#F9D481;}
</style>
<g>
	<g>
		<path class="st0" d="M32.5,65C50.4,65,65,50.4,65,32.5S50.4,0,32.5,0S0,14.6,0,32.5S14.6,65,32.5,65z M32.5,4
			C48.2,4,61,16.8,61,32.5S48.2,61,32.5,61S4,48.2,4,32.5S16.8,4,32.5,4z"/>
		<circle class="st0" cx="33" cy="43.7" r="3.3"/>
		<path class="st0" d="M32.3,35.3c1.1,0,2-0.9,2-2v-17c0-1.1-0.9-2-2-2s-2,0.9-2,2v17C30.3,34.4,31.2,35.3,32.3,35.3z"/>
	</g>
</g>
</svg>
