<?xml version="1.0" encoding="utf-8"?>
<!-- Generator: Adobe Illustrator 21.0.0, SVG Export Plug-In . SVG Version: 6.00 Build 0)  -->
<svg version="1.1" id="Layer_1" xmlns="http://www.w3.org/2000/svg" xmlns:xlink="http://www.w3.org/1999/xlink" x="0px" y="0px"
	 width="1360px" height="768px" viewBox="0 0 1360 768" style="enable-background:new 0 0 1360 768;" xml:space="preserve">
<style type="text/css">
	.st0{display:none;}
	.st1{display:inline;fill:url(#SVGID_1_);}
	.st2{fill:#FFFFFF;}
</style>
<g class="st0">
	<linearGradient id="SVGID_1_" gradientUnits="userSpaceOnUse" x1="831.9767" y1="-455.2003" x2="683.5836" y2="-455.2003">
		<stop  offset="0" style="stop-color:#3F4FFF"/>
		<stop  offset="1" style="stop-color:#3C76F4"/>
		<stop  offset="1" style="stop-color:#3A91EC"/>
		<stop  offset="1" style="stop-color:#36CCDB"/>
		<stop  offset="1" style="stop-color:#34F1D0"/>
		<stop  offset="1" style="stop-color:#33FFCC"/>
	</linearGradient>
	<path class="st1" d="M832-475.7h-67.1v0H733c-4.2,0-12.5,7.7-18.4,17.2l-4,6.5c-5.7,9.2-17.7,16.8-27,17.2c0.3,0,0.6,0,0.9,0h48.5
		h48.8c0.3,0,0.6,0,0.8,0H832L832-475.7z"/>
</g>
<g>
	<path class="st2" d="M684.5-434.7c-0.3,0-0.6,0-0.9,0c9.3-0.5,21.3-8.1,27-17.2l4-6.5c5.9-9.4,14.1-17.1,18.4-17.2h-78.3v0h-63.2
		h-7.7c4.2,0,12.5,7.7,18.4,17.2l4,6.5c5.9,9.4,18.4,17.3,27.9,17.3h48.8L684.5-434.7z"/>
</g>
</svg>
