<?xml version="1.0" encoding="utf-8"?>
<!-- Generator: Adobe Illustrator 17.0.0, SVG Export Plug-In . SVG Version: 6.00 Build 0)  -->
<!DOCTYPE svg PUBLIC "-//W3C//DTD SVG 1.1//EN" "http://www.w3.org/Graphics/SVG/1.1/DTD/svg11.dtd">
<svg version="1.1" id="Layer_1" xmlns="http://www.w3.org/2000/svg" xmlns:xlink="http://www.w3.org/1999/xlink" x="0px" y="0px"
	 width="26.875px" height="14.656px" viewBox="0 0 26.875 14.656" enable-background="new 0 0 26.875 14.656" xml:space="preserve">
<g>
	<g>
		<path fill="#BCBEC0" d="M13.437,14.656c-3.022,0-6.274-1.182-9.406-3.418C1.69,9.567,0.246,7.911,0.185,7.841
			c-0.247-0.286-0.247-0.709,0-0.995c0.06-0.07,1.505-1.726,3.846-3.397c3.131-2.236,6.384-3.418,9.406-3.418
			c3.022,0,6.274,1.182,9.406,3.418c2.341,1.671,3.785,3.327,3.846,3.397c0.247,0.286,0.247,0.709,0,0.995
			c-0.06,0.07-1.505,1.726-3.846,3.397C19.711,13.474,16.459,14.656,13.437,14.656L13.437,14.656z M1.802,7.344
			c0.584,0.596,1.687,1.643,3.143,2.679c1.996,1.42,5.089,3.113,8.492,3.113c3.403,0,6.496-1.693,8.492-3.113
			c1.456-1.036,2.558-2.084,3.143-2.679c-0.584-0.596-1.687-1.643-3.143-2.679c-1.996-1.42-5.089-3.113-8.492-3.113
			c-3.403,0-6.496,1.693-8.492,3.113C3.489,5.7,2.386,6.748,1.802,7.344L1.802,7.344z M1.802,7.344"/>
	</g>
	<path fill="#BCBEC0" d="M13.437,12.055c-2.598,0-4.712-2.114-4.712-4.712c0-2.598,2.114-4.712,4.712-4.712
		c1.143,0,2.245,0.414,3.104,1.167c0.316,0.277,0.347,0.757,0.071,1.072c-0.276,0.316-0.757,0.348-1.072,0.071
		c-0.582-0.509-1.328-0.79-2.102-0.79c-1.76,0-3.192,1.432-3.192,3.192c0,1.76,1.432,3.192,3.192,3.192
		c1.76,0,3.192-1.432,3.192-3.192c0-0.42,0.34-0.76,0.76-0.76c0.42,0,0.76,0.34,0.76,0.76C18.148,9.942,16.035,12.055,13.437,12.055
		L13.437,12.055z M13.437,12.055"/>
	<path fill="#BCBEC0" d="M13.437,8.864c-0.838,0-1.52-0.682-1.52-1.52c0-0.838,0.682-1.52,1.52-1.52c0.838,0,1.52,0.682,1.52,1.52
		C14.957,8.182,14.275,8.864,13.437,8.864L13.437,8.864z M13.437,8.864"/>
</g>
</svg>
