<?xml version="1.0" encoding="utf-8"?>
<!-- Generator: Adobe Illustrator 17.0.0, SVG Export Plug-In . SVG Version: 6.00 Build 0)  -->
<!DOCTYPE svg PUBLIC "-//W3C//DTD SVG 1.1//EN" "http://www.w3.org/Graphics/SVG/1.1/DTD/svg11.dtd">
<svg version="1.1" id="Layer_1" xmlns="http://www.w3.org/2000/svg" xmlns:xlink="http://www.w3.org/1999/xlink" x="0px" y="0px"
	 width="15.177px" height="15.208px" viewBox="0 0 15.177 15.208" enable-background="new 0 0 15.177 15.208" xml:space="preserve">
<g>
	<path fill="#BCBEC0" d="M14.974,0.869c-0.125-0.125-0.273-0.187-0.444-0.187c-0.171,0-0.319,0.063-0.444,0.187l-1.283,1.273
		c-0.704-0.664-1.51-1.179-2.418-1.544C9.478,0.232,8.543,0.05,7.583,0.05c-1.81,0-3.389,0.548-4.738,1.643
		C1.496,2.788,0.608,4.218,0.18,5.981V6.05c0,0.085,0.031,0.159,0.094,0.222c0.062,0.063,0.137,0.093,0.222,0.093H2.46
		c0.144,0,0.243-0.076,0.296-0.227c0.276-0.658,0.451-1.043,0.523-1.155C3.74,4.234,4.352,3.645,5.115,3.218
		C5.878,2.79,6.7,2.576,7.582,2.576c1.323,0,2.471,0.451,3.445,1.352L9.665,5.29C9.54,5.415,9.477,5.563,9.477,5.734
		c0,0.171,0.063,0.319,0.188,0.444c0.125,0.126,0.273,0.188,0.444,0.188h4.421c0.171,0,0.319-0.062,0.444-0.188
		c0.125-0.125,0.187-0.273,0.187-0.444V1.312C15.162,1.142,15.1,0.994,14.974,0.869L14.974,0.869z M14.974,0.869"/>
	<path fill="#BCBEC0" d="M14.599,8.892h-1.895c-0.145,0-0.244,0.076-0.296,0.227c-0.276,0.658-0.451,1.043-0.523,1.155
		c-0.46,0.75-1.072,1.339-1.835,1.767c-0.764,0.428-1.586,0.641-2.467,0.641c-0.638,0-1.254-0.118-1.846-0.355
		c-0.592-0.237-1.121-0.573-1.589-1.007L5.5,9.968c0.125-0.125,0.187-0.273,0.187-0.444c0-0.171-0.063-0.319-0.187-0.444
		C5.375,8.954,5.227,8.892,5.056,8.892H0.634c-0.171,0-0.319,0.062-0.444,0.188C0.065,9.205,0.002,9.353,0.002,9.524v4.421
		c0,0.171,0.063,0.319,0.187,0.444c0.125,0.125,0.273,0.187,0.444,0.187c0.171,0,0.319-0.063,0.444-0.187l1.273-1.273
		c0.704,0.671,1.505,1.188,2.403,1.55c0.898,0.362,1.828,0.542,2.788,0.542c1.803,0,3.376-0.547,4.718-1.643
		c1.342-1.096,2.223-2.525,2.645-4.288c0.007-0.013,0.009-0.037,0.009-0.069c0-0.086-0.031-0.16-0.094-0.222
		C14.759,8.924,14.685,8.892,14.599,8.892L14.599,8.892z M14.599,8.892"/>
</g>
</svg>
