<?xml version="1.0" encoding="utf-8"?>
<!-- Generator: Adobe Illustrator 17.0.0, SVG Export Plug-In . SVG Version: 6.00 Build 0)  -->
<!DOCTYPE svg PUBLIC "-//W3C//DTD SVG 1.1//EN" "http://www.w3.org/Graphics/SVG/1.1/DTD/svg11.dtd">
<svg version="1.1" id="Layer_1" xmlns="http://www.w3.org/2000/svg" xmlns:xlink="http://www.w3.org/1999/xlink" x="0px" y="0px"
	 width="21.458px" height="24.277px" viewBox="0 0 21.458 24.277" enable-background="new 0 0 21.458 24.277" xml:space="preserve">
<g>
	<g>
		<path fill="#BCBEC0" d="M10.726,12.311c-1.692,0-3.156-0.607-4.352-1.804C5.177,9.311,4.57,7.847,4.57,6.155
			C4.57,4.464,5.177,3,6.373,1.803C7.57,0.607,9.034,0,10.726,0c1.691,0,3.155,0.607,4.351,1.803
			c1.196,1.196,1.803,2.66,1.803,4.352c0,1.693-0.607,3.157-1.803,4.352C13.88,11.704,12.416,12.311,10.726,12.311z M10.726,1.343
			c-1.341,0-2.453,0.461-3.402,1.41c-0.949,0.949-1.41,2.061-1.41,3.402c0,1.341,0.461,2.454,1.41,3.401
			c0.949,0.95,2.061,1.411,3.402,1.411c1.34,0,2.452-0.461,3.401-1.411c0.949-0.947,1.41-2.06,1.41-3.402
			c0-1.341-0.461-2.454-1.41-3.401C13.178,1.805,12.065,1.343,10.726,1.343z"/>
	</g>
	<g>
		<path fill="#BCBEC0" d="M16.966,24.277H4.484c-1.323,0-2.411-0.396-3.233-1.177C0.421,22.31,0,21.236,0,19.908
			c0-0.521,0.017-1.029,0.052-1.525c0.034-0.497,0.105-1.045,0.209-1.629c0.107-0.591,0.241-1.141,0.4-1.636
			c0.166-0.52,0.392-1.031,0.671-1.52c0.287-0.505,0.624-0.945,1.004-1.309c0.391-0.376,0.876-0.68,1.437-0.903
			c0.559-0.221,1.178-0.333,1.84-0.333c0.243,0,0.496,0.109,0.966,0.415c0.313,0.205,0.665,0.432,1.057,0.681
			c0.345,0.221,0.813,0.427,1.389,0.613c1.129,0.366,2.272,0.366,3.4,0c0.575-0.185,1.042-0.391,1.386-0.612
			c0.394-0.251,0.746-0.477,1.057-0.681c0.479-0.311,0.723-0.416,0.968-0.416c0.661,0,1.28,0.112,1.838,0.332
			c0.561,0.223,1.045,0.527,1.44,0.903c0.38,0.366,0.719,0.807,1.005,1.312c0.278,0.489,0.504,1,0.669,1.518
			c0.162,0.506,0.296,1.056,0.401,1.636c0.103,0.576,0.173,1.123,0.209,1.627c0.034,0.497,0.052,1.005,0.052,1.526
			c0,1.327-0.421,2.401-1.25,3.192C19.376,23.882,18.289,24.277,16.966,24.277z M5.517,12.398c-0.456,0.01-0.876,0.09-1.25,0.237
			c-0.399,0.159-0.736,0.369-1.002,0.624c-0.286,0.274-0.543,0.611-0.766,1.004c-0.234,0.409-0.422,0.834-0.56,1.265
			c-0.14,0.439-0.26,0.932-0.356,1.465c-0.096,0.535-0.16,1.035-0.192,1.483c-0.032,0.466-0.048,0.943-0.048,1.432
			c0,0.959,0.273,1.685,0.834,2.219c0.57,0.542,1.325,0.806,2.306,0.806h12.482c0.981,0,1.736-0.264,2.308-0.807
			c0.56-0.534,0.833-1.26,0.833-2.218c0-0.489-0.016-0.966-0.048-1.432c-0.032-0.456-0.097-0.956-0.192-1.484
			c-0.094-0.522-0.213-1.015-0.357-1.464c-0.138-0.429-0.325-0.855-0.558-1.264c-0.223-0.392-0.481-0.73-0.767-1.005
			c-0.271-0.259-0.601-0.464-1.005-0.624c-0.373-0.147-0.793-0.227-1.248-0.237c-0.052,0.026-0.153,0.082-0.329,0.197
			c-0.315,0.206-0.672,0.436-1.07,0.689c-0.441,0.282-1.012,0.537-1.696,0.758c-1.396,0.45-2.829,0.45-4.225,0
			c-0.687-0.221-1.258-0.477-1.699-0.76c-0.396-0.252-0.753-0.482-1.07-0.689C5.67,12.48,5.57,12.424,5.517,12.398z"/>
	</g>
</g>
</svg>
