<?xml version="1.0" encoding="utf-8"?>
<!-- Generator: Adobe Illustrator 21.0.0, SVG Export Plug-In . SVG Version: 6.00 Build 0)  -->
<svg version="1.1" id="Capa_1" xmlns="http://www.w3.org/2000/svg" xmlns:xlink="http://www.w3.org/1999/xlink" x="0px" y="0px"
	 width="249.4px" height="249.4px" viewBox="0 0 249.4 249.4" style="enable-background:new 0 0 249.4 249.4;" xml:space="preserve"
	>
<style type="text/css">
	.st0{display:none;fill:#FFFFFF;}
	.st1{fill:#FFFFFF;}
	.st2{fill:#C8C4C3;}
	.st3{fill:#3C9AFA;}
</style>
<rect y="36.6" class="st0" width="212.8" height="212.8"/>
<g>
	<path class="st1" d="M206.5,249.4H6.3c-3.5,0-6.3-2.8-6.3-6.3V48.8c0-6.8,5.5-12.2,12.2-12.2h194.3c3.5,0,6.3,2.8,6.3,6.3v200.3
		C212.8,246.6,210,249.4,206.5,249.4z"/>
	<path class="st2" d="M206.8,81.5c-3.3,0-6,2.7-6,6v149.9H12V48.6h146.8c3.3,0,6-2.7,6-6s-2.7-6-6-6H6c-3.3,0-6,2.7-6,6v200.8
		c0,3.3,2.7,6,6,6h200.8c3.3,0,6-2.7,6-6V87.5C212.8,84.2,210.1,81.5,206.8,81.5z"/>
	<path class="st3" d="M247.7,1.8c-2.3-2.3-6.1-2.3-8.5,0L80.4,160.5L41,121.1c-2.3-2.3-6.1-2.3-8.5,0c-2.3,2.3-2.3,6.1,0,8.5
		l43.6,43.6c1.2,1.2,2.7,1.8,4.2,1.8s3.1-0.6,4.2-1.8l163-163C250,7.9,250,4.1,247.7,1.8z"/>
</g>
</svg>
